<svg id="visual" viewBox="0 0 675 900" width="675" height="900" xmlns="http://www.w3.org/2000/svg" xmlns:xlink="http://www.w3.org/1999/xlink" version="1.1"><path d="M0 109L37.5 113.5C75 118 150 127 225 130C300 133 375 130 450 130C525 130 600 133 637.5 134.5L675 136L675 0L637.5 0C600 0 525 0 450 0C375 0 300 0 225 0C150 0 75 0 37.5 0L0 0Z" fill="#ab74ff"></path><path d="M0 325L37.5 343C75 361 150 397 225 419.5C300 442 375 451 450 461.5C525 472 600 484 637.5 490L675 496L675 134L637.5 132.5C600 131 525 128 450 128C375 128 300 131 225 128C150 125 75 116 37.5 111.5L0 107Z" fill="#9652ff"></path><path d="M0 532L37.5 548.5C75 565 150 598 225 602.5C300 607 375 583 450 590.5C525 598 600 637 637.5 656.5L675 676L675 494L637.5 488C600 482 525 470 450 459.5C375 449 300 440 225 417.5C150 395 75 359 37.5 341L0 323Z" fill="#7f27ff"></path><path d="M0 631L37.5 659.5C75 688 150 745 225 758.5C300 772 375 742 450 734.5C525 727 600 742 637.5 749.5L675 757L675 674L637.5 654.5C600 635 525 596 450 588.5C375 581 300 605 225 600.5C150 596 75 563 37.5 546.5L0 530Z" fill="#6e1fde"></path><path d="M0 901L37.5 901C75 901 150 901 225 901C300 901 375 901 450 901C525 901 600 901 637.5 901L675 901L675 755L637.5 747.5C600 740 525 725 450 732.5C375 740 300 770 225 756.5C150 743 75 686 37.5 657.5L0 629Z" fill="#5d17be"></path></svg>